<?xml version="1.0" encoding="utf-8"?>
<!-- Generator: Adobe Illustrator 27.2.0, SVG Export Plug-In . SVG Version: 6.00 Build 0)  -->
<svg version="1.1" id="Layer_1" xmlns="http://www.w3.org/2000/svg" xmlns:xlink="http://www.w3.org/1999/xlink" x="0px" y="0px"
	 viewBox="0 0 529.6 140.4" style="enable-background:new 0 0 529.6 140.4;" xml:space="preserve">
<style type="text/css">
	.st0{fill:#FFFFFF;}
	.st1{fill:#E03A3E;}
	.st2{fill:none;stroke:#E03A3E;stroke-width:6.900000e-02;}
	.st3{stroke:#000000;stroke-width:2.300000e-02;}
	.st4{fill:#FFD520;}
	.st5{fill:none;stroke:#FFD520;stroke-width:6.900000e-02;}
	.st6{stroke:#000000;stroke-width:2.300000e-02;stroke-linecap:round;stroke-linejoin:round;}
</style>
<g id="Layer_2_00000126313241835126064140000017167758901503266237_">
</g>
<g>
	<g id="Layer_3">
		<rect x="81.8" y="87.5" width="424.7" height="0.7"/>
		<rect x="352.1" y="26.3" width="0.7" height="49.4"/>
		<g>
			<path class="st0" d="M43.6,76.2C58.1,76.2,70,64.4,70,49.9S57.6,23.7,43.6,23.7c-14.5,0-26.5,11.7-26.5,26.2
				C17.1,64.4,29,76.2,43.6,76.2L43.6,76.2z"/>
			<path class="st0" d="M55.9,33.2c-3.4,0.5-8,0.8-12.7,0.8c0.1-5.2,0.1-9,0.3-10.2C48.2,24.8,52.6,28.3,55.9,33.2"/>
			<path class="st1" d="M61.6,52c-4.9,0.8-11.5,1.2-18.4,1.2c0-7.1,0-14,0.1-19.3c4.8,0,9.3-0.3,12.7-0.8
				C59.2,38.2,61.4,44.9,61.6,52"/>
			<path class="st2" d="M61.6,52c-4.9,0.8-11.5,1.2-18.4,1.2c0-7.1,0-14,0.1-19.3c4.8,0,9.3-0.3,12.7-0.8
				C59.2,38.2,61.4,44.9,61.6,52"/>
			<path class="st0" d="M61.1,52c-1.4-0.2-2.5-2.5-1.9-4.8c-1.9,1.3-4.1-1.4-3.8-3.9c0.2-1.3,1.1-2.5,2.6-2c-0.6-2.1-1.4-4.2-2.3-6
				c-1.3,0.2-2.8,0.3-4.4,0.4c1.4,2.1,0,4.1-1.9,3.8c-1.4-0.2-2.8-1.7-2.4-3.5c-1.1,0.8-3.5,0.5-3.8-2.1c4.4,0,8.2-0.2,12.7-0.8l0,0
				c3.7,6,5.3,11.4,5.6,18.9C61.4,52,61.2,52,61.1,52"/>
			<path class="st0" d="M29.5,69.7c-2.7-0.5-4.5-1-5.1-1.7c-0.7-0.8-1.6-1.8-2.2-2.6c-1.5-2.2-1.5-2.3-2.2-3.5
				c-1.1-2.4-1.2-2.5-1.6-3.8c-0.8-2.6-0.8-2.7-1-4.1c-0.1-1.2-0.3-2.9-0.3-4.2l0-1.1c-0.1,1.1,2.6,2.2,7.3,3c0,0.4,0,0.7,0,1.1
				C24.4,59.6,26.4,65.6,29.5,69.7"/>
			<path class="st0" d="M43.5,76.2c-0.1,0-0.3,0-0.4,0c-0.2,0-0.5,0-0.7,0c-1.6-0.1-2.6-0.2-4-0.5c-3.4-0.8-6.5-2.9-8.8-6
				c2.3,0.4,5.3,0.7,8.8,0.8c1.6,0.1,3.3,0.1,4.9,0.1C43.3,74.1,43.4,76.2,43.5,76.2"/>
			<path class="st1" d="M43.2,70.6c-1.6,0-3.3,0-4.9-0.1c-3.5-0.1-6.5-0.4-8.8-0.8c-3.2-4.2-5.1-10.1-5.1-16.9c0-0.3,0-0.6,0-0.9
				c3.2,0.5,7.2,0.9,12,1.1c2.2,0.1,4.5,0.1,6.7,0.1c0,0.3,0,0.6,0,0.9C43.1,60.9,43.2,66.7,43.2,70.6"/>
			<path class="st2" d="M43.2,70.6c-1.6,0-3.3,0-4.9-0.1c-3.5-0.1-6.5-0.4-8.8-0.8c-3.2-4.2-5.1-10.1-5.1-16.9c0-0.3,0-0.6,0-0.9
				c3.2,0.5,7.2,0.9,12,1.1c2.2,0.1,4.5,0.1,6.7,0.1c0,0.3,0,0.6,0,0.9C43.1,60.9,43.2,66.7,43.2,70.6"/>
			<path class="st1" d="M43.2,71c-0.2,0.9-1.5,1.8-3.3,1.1c0.9,1.1,0.1,2.1-1.4,1.8c-1.1-0.2-2.5-1.1-2.6-2.1
				c-1.4-0.1-2.7-0.2-3.9-0.4c1.1,1.3,2.3,2.3,3.7,3.1c0.1-0.1,0.4-0.1,1.2,0.2c1,0.4,1.9,0.9,3,1.2l0,0c-0.8-0.1-0.9-0.1-1.4-0.2
				c-1.9-0.6-5.4-1.6-8.8-6l0,0l0,0l0,0c4.1,0.6,8.1,0.9,13.7,0.9C43.2,70.7,43.2,70.9,43.2,71"/>
			<path class="st2" d="M43.2,71c-0.2,0.9-1.5,1.8-3.3,1.1c0.9,1.1,0.1,2.1-1.4,1.8c-1.1-0.2-2.5-1.1-2.6-2.1
				c-1.4-0.1-2.7-0.2-3.9-0.4c1.1,1.3,2.3,2.3,3.7,3.1c0.1-0.1,0.4-0.1,1.2,0.2c1,0.4,1.9,0.9,3,1.2l0,0c-0.8-0.1-0.9-0.1-1.4-0.2
				c-1.9-0.6-5.4-1.6-8.8-6l0,0l0,0l0,0c4.1,0.6,8.1,0.9,13.7,0.9C43.2,70.7,43.2,70.9,43.2,71"/>
			<path class="st0" d="M29.5,69.7L29.5,69.7c-3.6-5.2-5.1-10.2-5.1-17.8c2.1,0.7,2.6,3.7,2.1,5.4c2-0.8,4.4,2.6,3.6,4.9
				c-0.4,1-1.4,1.3-2.5,0.7c0.6,2,1.3,3.8,2.2,5.4c1.4,0.2,2.9,0.4,4.6,0.5c-1.3-1.7-0.3-3.1,1.6-3c1.6,0.1,3.6,1.4,3.2,3.1
				c1.4-0.6,3.8-0.1,4.1,1.7c-1.7,0-4.3,0-7.6-0.3C33.6,70.2,31.6,69.8,29.5,69.7"/>
			<path class="st1" d="M29.5,69.7c-3-0.6-4.3-1-5.2-1.7c-0.6-0.7-1.4-1.6-2-2.3c0.1,0.1,0.2,0.2,0.4,0.6c-0.3-0.4-1.6-2.1-1.8-2.9
				c0.7-0.1,3.2,3.6,3.2,3.7c0.7,0.3,1.7,0.5,2.8,0.8c-1.1-1.6-2-3.5-2.7-5.5c-1.6,0.8-3.7-3.5-3.1-5.3c0.1-0.4,0.6-1.1,1.7-0.3
				c-0.9-1.9-0.6-4.8,1.4-4.8C24.5,58.3,25.4,63.8,29.5,69.7"/>
			<path class="st2" d="M29.5,69.7c-3-0.6-4.3-1-5.2-1.7c-0.6-0.7-1.4-1.6-2-2.3c0.1,0.1,0.2,0.2,0.4,0.6c-0.3-0.4-1.6-2.1-1.8-2.9
				c0.7-0.1,3.2,3.6,3.2,3.7c0.7,0.3,1.7,0.5,2.8,0.8c-1.1-1.6-2-3.5-2.7-5.5c-1.6,0.8-3.7-3.5-3.1-5.3c0.1-0.4,0.6-1.1,1.7-0.3
				c-0.9-1.9-0.6-4.8,1.4-4.8C24.5,58.3,25.4,63.8,29.5,69.7"/>
			<path class="st3" d="M56.3,72.9c-1.8,0.9-2.2,1.1-4.1,1.8c-0.6,0.2-1.3,0.4-1.9,0.6c3.7-1,7-3.1,9.5-6c-0.6,1.2-0.9,1.9-2.8,3.2
				C56.8,72.6,56.5,72.7,56.3,72.9"/>
			<path class="st4" d="M57,72.5c1.6-1.1,2.3-1.7,2.8-3.2C63.6,65,66,58.9,66,52c0-0.3,0-0.6,0-0.9c1.2-0.3,2.2-0.7,2.8-1
				c0,0.3,0,0.6,0,0.9C68.8,60.2,64.1,68.2,57,72.5"/>
			<path class="st5" d="M57,72.5c1.6-1.1,2.3-1.7,2.8-3.2C63.6,65,66,58.9,66,52c0-0.3,0-0.6,0-0.9c1.2-0.3,2.2-0.7,2.8-1
				c0,0.3,0,0.6,0,0.9C68.8,60.2,64.1,68.2,57,72.5"/>
			<path class="st3" d="M49.1,65.7c-1.8-1.8-1.8-1.8-6-5.8c0-1.8,0-3.8,0-5.8c0-0.3,0-0.6,0-0.9c2.3,0,4.5-0.1,6.7-0.1
				c0,0.3,0,0.6,0,0.9C49.8,58.3,49.6,62.3,49.1,65.7"/>
			<path class="st4" d="M44.6,76.2h-0.2c-0.4,0-0.5,0-0.7,0h-0.3c-0.1,0-0.3-6.5-0.3-16.3c3.9,3.7,4.3,4.1,6,5.8
				C48.2,72.1,46.6,76.1,44.6,76.2"/>
			<path class="st5" d="M44.6,76.2h-0.2c-0.4,0-0.5,0-0.7,0h-0.3c-0.1,0-0.3-6.5-0.3-16.3c3.9,3.7,4.3,4.1,6,5.8
				C48.2,72.1,46.6,76.1,44.6,76.2"/>
			<path class="st3" d="M45.9,76.1c-0.2,0-0.5,0-0.7,0.1c-0.2,0-0.4,0-0.6,0c2-0.1,3.6-4.1,4.5-10.5c1.9,2,2.7,3,3.7,4.5
				C51,73.7,48.6,75.9,45.9,76.1"/>
			<path class="st4" d="M52.7,70.2c-0.9-1.4-1.5-2.2-3.7-4.5c0.5-3.3,0.7-7.3,0.7-11.8c0-0.3,0-0.6,0-0.9c2.2-0.1,4.3-0.2,6.2-0.4
				c0,0.3,0,0.6,0,0.9C56,60.3,54.8,66.1,52.7,70.2"/>
			<path class="st5" d="M52.7,70.2c-0.9-1.4-1.5-2.2-3.7-4.5c0.5-3.3,0.7-7.3,0.7-11.8c0-0.3,0-0.6,0-0.9c2.2-0.1,4.3-0.2,6.2-0.4
				c0,0.3,0,0.6,0,0.9C56,60.3,54.8,66.1,52.7,70.2"/>
			<path class="st3" d="M53.3,73.4c0.3-1.1,0.3-1.7-0.5-3.3c2-4,3.3-9.8,3.3-16.6c0-0.3,0-0.6,0-0.9c0.7-0.1,1.4-0.1,2.1-0.2
				c1,1.1,2.2,2.6,3.2,4.1C60.6,64,57.6,70.1,53.3,73.4"/>
			<path class="st4" d="M47.5,75.9c-0.2,0-0.5,0.1-0.6,0.1c-0.6,0.1-0.6,0.1-0.9,0.1h-0.1c2.7-0.2,5.1-2.4,6.9-6
				c0.7,1.4,0.9,2.1,0.5,3.3C51.5,74.7,49.6,75.6,47.5,75.9"/>
			<path class="st5" d="M47.5,75.9c-0.2,0-0.5,0.1-0.6,0.1c-0.6,0.1-0.6,0.1-0.9,0.1h-0.1c2.7-0.2,5.1-2.4,6.9-6
				c0.7,1.4,0.9,2.1,0.5,3.3C51.5,74.7,49.6,75.6,47.5,75.9"/>
			<path class="st4" d="M50.3,75.3l-0.6,0.2c-1.1,0.2-1.1,0.2-1.6,0.4l-0.5,0.1c5.1-0.8,9.4-4.9,11.9-11c0.7,1.8,0.9,2.6,0.4,4.3
				C57.3,72.2,54,74.3,50.3,75.3"/>
			<path class="st5" d="M50.3,75.3l-0.6,0.2c-1.1,0.2-1.1,0.2-1.6,0.4l-0.5,0.1c5.1-0.8,9.4-4.9,11.9-11c0.7,1.8,0.9,2.6,0.4,4.3
				C57.3,72.2,54,74.3,50.3,75.3"/>
			<path class="st3" d="M49.7,75.5c-1.1,0.2-1.1,0.2-1.6,0.4l-0.5,0.1c2.1-0.3,4-1.2,5.8-2.5c-0.6,0.9-1,1.3-3,1.9L49.7,75.5"/>
			<path class="st3" d="M59.8,69.3c0.4-1.5,0.4-2.3-0.4-4.3c1.4-3.5,2.2-7.5,2.2-12.1c0-0.3,0-0.6,0-0.9c1.7-0.3,3.1-0.6,4.4-0.9
				c0,0.3,0,0.6,0,0.9C66,58.9,63.7,65,59.8,69.3"/>
			<path class="st4" d="M56.3,72.9c0.2-0.1,0.5-0.3,0.7-0.4l-0.3,0.2L56.3,72.9"/>
			<path class="st5" d="M56.3,72.9c0.2-0.1,0.5-0.3,0.7-0.4l-0.3,0.2L56.3,72.9"/>
			<path class="st4" d="M59.4,64.9c-0.9-1.9-1.6-2.9-3.7-5.5c0.2-1.8,0.3-3.8,0.3-5.9c0-0.3,0-0.6,0-0.9c2-0.2,3.9-0.4,5.5-0.6
				c0,0.3,0,0.6,0,0.9C61.6,57.4,60.8,61.5,59.4,64.9"/>
			<path class="st5" d="M59.4,64.9c-0.9-1.9-1.6-2.9-3.7-5.5c0.2-1.8,0.3-3.8,0.3-5.9c0-0.3,0-0.6,0-0.9c2-0.2,3.9-0.4,5.5-0.6
				c0,0.3,0,0.6,0,0.9C61.6,57.4,60.8,61.5,59.4,64.9"/>
			<path class="st3" d="M55.7,59.4c-1.5-1.8-2.3-2.6-5.9-6.4c2-0.1,3.6-0.2,6.2-0.4c0,0.3,0,0.6,0,0.9C56,55.6,55.9,57.6,55.7,59.4"
				/>
			<path class="st4" d="M27.7,32.2c0.9-2.1,1.6-3.1,3.6-4.8c3.6-2.2,7.8-3.5,12.3-3.7C37.3,24.3,31.8,27.5,27.7,32.2"/>
			<path class="st5" d="M27.7,32.2c0.9-2.1,1.6-3.1,3.6-4.8c3.6-2.2,7.8-3.5,12.3-3.7C37.3,24.3,31.8,27.5,27.7,32.2"/>
			<path class="st3" d="M20.4,51c-1.1-0.3-1.9-0.6-2.5-1c0.3-9.5,5.6-18,13.3-22.6c-1.8,1.6-2.6,2.6-3.6,4.8
				C23.3,37.2,20.6,43.8,20.4,51"/>
			<path class="st4" d="M43.1,53.2c-2.2,0-4.5-0.1-6.7-0.1c-0.1,0-0.1,0-0.2,0c0-4.7,0.4-9.3,1.1-13.4c1.9,2.4,2.9,3.6,5.9,6.6
				C43.1,48.5,43.1,50.8,43.1,53.2"/>
			<path class="st5" d="M43.1,53.2c-2.2,0-4.5-0.1-6.7-0.1c-0.1,0-0.1,0-0.2,0c0-4.7,0.4-9.3,1.1-13.4c1.9,2.4,2.9,3.6,5.9,6.6
				C43.1,48.5,43.1,50.8,43.1,53.2"/>
			<path class="st4" d="M37.3,39.6c-1.8-2.5-2.6-3.8-3.3-6.1c2.5-5.2,5.8-8.8,9.5-9.8C40.8,25.2,38.5,31.5,37.3,39.6"/>
			<path class="st5" d="M37.3,39.6c-1.8-2.5-2.6-3.8-3.3-6.1c2.5-5.2,5.8-8.8,9.5-9.8C40.8,25.2,38.5,31.5,37.3,39.6"/>
			<path class="st3" d="M36.2,53c-2.3-0.1-4.4-0.3-6.4-0.4c0.1-7,1.7-13.8,4.2-19c0.8,2.2,1.4,3.5,3.3,6.1
				C36.6,43.7,36.2,48.3,36.2,53"/>
			<path class="st4" d="M29.8,52.6c-0.7-0.1-1.4-0.1-2.1-0.2c-0.9-1.3-2-3-2.9-5c1.1-7.7,4.6-14.5,9.4-18.9
				c-0.6,1.7-0.8,2.8-0.2,5.1C31.5,38.8,29.9,45.5,29.8,52.6"/>
			<path class="st5" d="M29.8,52.6c-0.7-0.1-1.4-0.1-2.1-0.2c-0.9-1.3-2-3-2.9-5c1.1-7.7,4.6-14.5,9.4-18.9
				c-0.6,1.7-0.8,2.8-0.2,5.1C31.5,38.8,29.9,45.5,29.8,52.6"/>
			<path class="st3" d="M34,33.6c-0.5-2.1-0.5-3.2,0.2-5.1c2.8-2.5,5.9-4.2,9.3-4.8C39.7,24.7,36.4,28.4,34,33.6"/>
			<path class="st3" d="M27.3,38.5c-0.4-2.6-0.4-3.9,0.4-6.3c4.1-4.7,9.7-7.9,15.8-8.5l0,0C42,24,41.7,24,40.6,24.4
				C35,26.5,30.2,31.7,27.3,38.5"/>
			<path class="st4" d="M34.2,28.5c0.9-1.5,1.5-2.3,3.7-3.4c1.8-0.6,3.6-1.1,5.6-1.3C40.1,24.3,36.9,25.9,34.2,28.5"/>
			<path class="st5" d="M34.2,28.5c0.9-1.5,1.5-2.3,3.7-3.4c1.8-0.6,3.6-1.1,5.6-1.3C40.1,24.3,36.9,25.9,34.2,28.5"/>
			<path class="st4" d="M24.4,51.9c-1.6-0.3-2.9-0.6-4-0.9c0.2-7.2,3-13.9,7.3-18.8c-0.7,2.2-0.8,3.5-0.4,6.3
				C25.5,42.5,24.5,47.1,24.4,51.9"/>
			<path class="st5" d="M24.4,51.9c-1.6-0.3-2.9-0.6-4-0.9c0.2-7.2,3-13.9,7.3-18.8c-0.7,2.2-0.8,3.5-0.4,6.3
				C25.5,42.5,24.5,47.1,24.4,51.9"/>
			<path class="st3" d="M31.2,27.4c1.9-1.4,3-2.1,6-3c2-0.5,4.1-0.7,6.2-0.7l0,0C39,23.9,34.8,25.3,31.2,27.4"/>
			<path class="st4" d="M17.9,50c-0.6-0.4-0.9-0.7-0.8-1.1l0.1-0.9c0.8-11.5,9.1-21,20.1-23.6c-2.5,0.8-3.9,1.4-6,3
				C23.5,32,18.2,40.5,17.9,50"/>
			<path class="st5" d="M17.9,50c-0.6-0.4-0.9-0.7-0.8-1.1l0.1-0.9c0.8-11.5,9.1-21,20.1-23.6c-2.5,0.8-3.9,1.4-6,3
				C23.5,32,18.2,40.5,17.9,50"/>
			<path class="st3" d="M29.8,52.6c-2-0.2-3.8-0.4-5.4-0.7c0.1-4.8,1.1-9.4,2.9-13.4c0.7,2.7,1.2,4.1,3.1,7.2
				C30,47.9,29.9,50.3,29.8,52.6"/>
			<path class="st4" d="M29.8,52.6c0-2.3,0.2-4.7,0.6-6.9c1.6,2.4,2.6,3.8,5.8,7.3C34,52.9,32.4,52.8,29.8,52.6"/>
			<path class="st5" d="M29.8,52.6c0-2.3,0.2-4.7,0.6-6.9c1.6,2.4,2.6,3.8,5.8,7.3C34,52.9,32.4,52.8,29.8,52.6"/>
			<path class="st3" d="M37.9,25c1.5-0.6,2.7-1.1,5.6-1.3l0,0C41.5,23.9,39.7,24.3,37.9,25"/>
			<path class="st6" d="M68.9,50c0.7-0.4,1-0.8,1-1.2c0.4,11-5.8,19.5-13.1,23.8l0,0l0.3-0.2c7.1-4.3,11.8-12.2,11.8-21.5
				c0-0.3,0-0.6,0-0.9C68.9,50.1,68.9,50,68.9,50c0,0.3,0,0.6,0,0.9"/>
			<path class="st1" d="M55.9,33L55.9,33L55.9,33C56,33,56,33,55.9,33L55.9,33C56,33,56,33,55.9,33c0.3,0,0.5-0.1,0.8-0.1
				c1.5-0.3,4.8-1,4.8-2c0,0,1.5,1.3,2.4,3.2c0.1,0.2,0.2,0.4,0.3,0.6c0.1,0.2,0.1,0.4,0.2,0.6l0,0c0,0.1,0,0.1,0,0.2
				c0,0,0,0.1,0,0.1c-0.1,0.6-0.4,0.6-0.8,0.4c0,0-0.1,0-0.1-0.1c-1.3-0.6-1.8-1.8-2.1-2.3c-0.7,0.2-1.8,0.7-2.8,0.9
				c-0.1,0-0.3,0.1-0.4,0.1c1.1,1.8,2.2,4,2.9,6.1c1.3-1.3,3.4,1.2,3.5,3.6c0.1,1.4-0.6,2.7-1.9,2.3c1.1,1.9,0.7,4.8-1.3,5.4
				C61.2,45.6,60.1,40,55.9,33L55.9,33C55.9,33.1,55.9,33.1,55.9,33"/>
			<path class="st2" d="M55.9,33L55.9,33L55.9,33C56,33,56,33,55.9,33L55.9,33C56,33,56,33,55.9,33c0.3,0,0.5-0.1,0.8-0.1
				c1.5-0.3,4.8-1,4.8-2c0,0,1.5,1.3,2.4,3.2c0.1,0.2,0.2,0.4,0.3,0.6c0.1,0.2,0.1,0.4,0.2,0.6l0,0c0,0.1,0,0.1,0,0.2
				c0,0,0,0.1,0,0.1c-0.1,0.6-0.4,0.6-0.8,0.4c0,0-0.1,0-0.1-0.1c-1.3-0.6-1.8-1.8-2.1-2.3c-0.7,0.2-1.8,0.7-2.8,0.9
				c-0.1,0-0.3,0.1-0.4,0.1c1.1,1.8,2.2,4,2.9,6.1c1.3-1.3,3.4,1.2,3.5,3.6c0.1,1.4-0.6,2.7-1.9,2.3c1.1,1.9,0.7,4.8-1.3,5.4
				C61.2,45.6,60.1,40,55.9,33L55.9,33C55.9,33.1,55.9,33.1,55.9,33"/>
			<path class="st1" d="M56.2,28.2C56.2,28.2,56.2,28.1,56.2,28.2C56.2,28.1,56.2,28.1,56.2,28.2C56.2,28.1,56.2,28.1,56.2,28.2
				c0-0.1,0-0.1,0-0.1c0,0,0.1,0,0.1,0l0,0c0,0,0.2-0.8,3.2,1.3c-5.1-4-10.3-5.1-13.4-5.5c0.3,0.1,0.6,0.2,0.8,0.3
				c0.1,0.1,0.3,0.1,0.4,0.2l0,0c0.4,0,0.7,0.1,1,0.2l0,0l0,0c0.1,0,0.2,0.1,0.3,0.1c0,0,0,0,0,0c0.1,0,0.2,0.1,0.3,0.1
				c0,0,0.1,0,0.1,0c0.1,0,0.2,0.1,0.3,0.1c0,0,0.1,0,0.1,0c0.1,0.1,0.2,0.1,0.4,0.1l0,0c0.9,0.4,1.7,1,1.7,1.3
				c-0.1,0.1-0.2,0.1-0.6,0c1.6,1.1,3.8,3.2,5.1,4.7c0.9-0.2,2.3-0.4,2.9-0.6C58.7,30.7,56.5,29,56.2,28.2L56.2,28.2z"/>
			<path class="st2" d="M56.2,28.2C56.2,28.2,56.2,28.1,56.2,28.2C56.2,28.1,56.2,28.1,56.2,28.2C56.2,28.1,56.2,28.1,56.2,28.2
				c0-0.1,0-0.1,0-0.1c0,0,0.1,0,0.1,0l0,0c0,0,0.2-0.8,3.2,1.3c-5.1-4-10.3-5.1-13.4-5.5c0.3,0.1,0.6,0.2,0.8,0.3
				c0.1,0.1,0.3,0.1,0.4,0.2l0,0c0.4,0,0.7,0.1,1,0.2l0,0l0,0c0.1,0,0.2,0.1,0.3,0.1c0,0,0,0,0,0c0.1,0,0.2,0.1,0.3,0.1
				c0,0,0.1,0,0.1,0c0.1,0,0.2,0.1,0.3,0.1c0,0,0.1,0,0.1,0c0.1,0.1,0.2,0.1,0.4,0.1l0,0c0.9,0.4,1.7,1,1.7,1.3
				c-0.1,0.1-0.2,0.1-0.6,0c1.6,1.1,3.8,3.2,5.1,4.7c0.9-0.2,2.3-0.4,2.9-0.6C58.7,30.7,56.5,29,56.2,28.2L56.2,28.2z"/>
			<path class="st0" d="M61.5,31c-0.6-0.6-1.3-1.2-2-1.7c-1.2-0.9-2-1.2-2.5-1.3l0,0c0,0-1.5-0.5-0.6,0.7l0,0
				c0.6,0.9,2.3,2.1,2.3,2.1c-0.6,0.2-2,0.4-2.9,0.6c-1.3-1.5-3.6-3.6-5.1-4.7c0.4,0.1,0.4,0.1,0.6,0c0-0.4-0.8-0.9-1.7-1.3l0,0
				c-0.1-0.1-0.2-0.1-0.4-0.1c0,0-0.1,0-0.1,0c-0.1,0-0.2-0.1-0.3-0.1c0,0-0.1,0-0.1,0c-0.1,0-0.2-0.1-0.3-0.1c0,0,0,0,0,0
				c-0.1,0-0.2-0.1-0.3-0.1l0,0c-0.3-0.1-0.6-0.1-1-0.2l0,0c0,0,0,0,0.1,0.1l-0.1-0.1c0,0,0,0,0.1,0c-0.1-0.1-0.2-0.1-0.4-0.2
				c-0.2-0.1-0.4-0.2-0.8-0.3c-0.8-0.1-1.4-0.1-1.8-0.1c-0.4,0-0.6,0-0.7,0l0,0c-0.1,0-0.2,0-0.2,0l0.1,0c-0.1,0-0.1,0-0.2,0
				c0.2,0,0.3,0.1,0.5,0.1c0.4,0.1,1.3,0.4,1.9,0.5c4,1.4,7.5,4.5,10.2,8.7c0,0,0.1,0,0.1,0c2.4-0.4,3.8-0.9,4.8-1.3l0,0
				C61.6,31.3,61.5,31,61.5,31L61.5,31L61.5,31z"/>
			<path class="st1" d="M55.9,33.1L55.9,33.1L55.9,33.1L55.9,33.1L55.9,33.1c-4.3-6.3-8.2-8.2-11.8-9.1c0.1,0,0.2,0.1,0.3,0.1
				c-0.2-0.1-0.3-0.1-0.5-0.1c0,0-0.1,0-0.1,0c0.1,0,0.2,0.1,0.3,0.1c-0.1,0-0.3-0.1-0.4-0.1c-0.1,0-0.1,0-0.1,0c0,0,0,0,0,0
				c-0.1,0-0.2,0-0.3-0.1l0,0l0,0c0.8,0.9,1.8,1.2,2.1,1.3c-0.1,0.3,0,0.9,1.1,1.8c0.2,0.1,0.4,0.2,0.5,0.3c1.7,0.9,2.1,0.2,2.2-0.1
				c0,0,0,0,0,0c0.5,0.4,1.5,1.2,2.7,2.5c0.6,0.8,1.3,1.5,1.7,2.1c-1.1,0.1-2.5,0.3-3.8,0.4c-0.1-1.7-1.3-2.5-2.1-2.8
				c-1.7-0.6-2.2,1.3-1.5,2.7c-1.3-0.7-2.9-0.1-3.1,2C48.4,33.9,52,33.6,55.9,33.1L55.9,33.1L55.9,33.1"/>
			<path class="st2" d="M55.9,33.1L55.9,33.1L55.9,33.1L55.9,33.1L55.9,33.1c-4.3-6.3-8.2-8.2-11.8-9.1c0.1,0,0.2,0.1,0.3,0.1
				c-0.2-0.1-0.3-0.1-0.5-0.1c0,0-0.1,0-0.1,0c0.1,0,0.2,0.1,0.3,0.1c-0.1,0-0.3-0.1-0.4-0.1c-0.1,0-0.1,0-0.1,0c0,0,0,0,0,0
				c-0.1,0-0.2,0-0.3-0.1l0,0l0,0c0.8,0.9,1.8,1.2,2.1,1.3c-0.1,0.3,0,0.9,1.1,1.8c0.2,0.1,0.4,0.2,0.5,0.3c1.7,0.9,2.1,0.2,2.2-0.1
				c0,0,0,0,0,0c0.5,0.4,1.5,1.2,2.7,2.5c0.6,0.8,1.3,1.5,1.7,2.1c-1.1,0.1-2.5,0.3-3.8,0.4c-0.1-1.7-1.3-2.5-2.1-2.8
				c-1.7-0.6-2.2,1.3-1.5,2.7c-1.3-0.7-2.9-0.1-3.1,2C48.4,33.9,52,33.6,55.9,33.1L55.9,33.1L55.9,33.1"/>
			<path class="st3" d="M43.1,46.3c-2.6-2.7-4-4.2-5.9-6.6c1.3-8.2,3.6-14.4,6.2-15.9l0,0l0,0C43.3,25.7,43.2,35.1,43.1,46.3"/>
			<path d="M100.6,75.6l-12-25.1h-0.1l-1.3,21.2c-0.1,2.4,1.7,2.9,3.8,3v0.9h-9.8v-0.9c3.4,0,3.8-0.8,4.1-5l1.1-18.3
				c0.2-3.1,0.1-4-2.8-4.1v-0.9h7.1L102,70.1l11.3-23.7h6.9v0.9c-2.3,0.2-3.2,0.2-3.1,1.8l1.5,21.3c0.3,4.3,0.6,4.3,4.1,4.3v0.9
				h-12.1v-0.9c2.2,0,4.4-0.6,4.2-3.1l-1.3-21.1h-0.1l-11.7,25.1L100.6,75.6L100.6,75.6z"/>
			<path d="M141.7,60.6h-8.1l4-10.9L141.7,60.6L141.7,60.6z M142.5,62.7l3.1,8.5c0.2,0.5,0.5,1.2,0.5,1.9c0,1.3-1,1.6-3.7,1.6h-1.2
				v0.9h12.9v-0.9c-2.3,0-3.3-0.5-4.3-3l-9.8-26.1H136l0.4,1l-8.6,23.3c-1.5,4.1-2,4.6-5.1,4.6v0.9h10.9v-0.9h-0.8
				c-2.6,0-3.8-0.5-3.8-1.7c0-0.6,0.6-2.1,0.9-3l2.7-7.4L142.5,62.7L142.5,62.7z"/>
			<path d="M162.6,47c0.9-0.1,1.5-0.1,2.4-0.1c7.3,0,9.3,3.4,9.3,7.7c0,5.6-3.5,7.9-8.7,7.9c-1.1,0-1.8,0.1-2.9-0.1V47L162.6,47z
				 M162.6,63.3c0.8,0.1,1.4,0.1,2.4,0.1c1.3,0,2-0.1,3.2-0.1c1.1,0.8,2.8,2.1,4.9,4.2l3.1,3.1c4.2,4.2,6.3,6,14.5,5.6v-0.9
				c-3.6-0.2-6.5-2-9.3-4.7l-3.7-3.7c-2.2-2.2-3.6-3.5-5.3-4.9c3.8-1.1,6.2-4.1,6.2-7.6c0-4.8-3.9-8.4-12.6-8.4
				c-3.1,0-4,0.1-5.9,0.1c-1.9,0.1-4.8,0.3-5.9,0.3v0.9h1c2.7,0,3.5,0.9,3.5,3.8v19.8c0,3.1-1,3.9-3.8,3.9h-0.8v0.9h13.3v-0.9h-1.1
				c-2.6,0-3.8-0.7-3.8-3.5L162.6,63.3L162.6,63.3z"/>
			<path d="M206.8,50.7c1.5-2.6,0.6-3.4-2.4-3.4v-0.9H215v0.9c-3.2,0.2-4.5,1.5-5.9,3.7l-7.8,13.2v7c0,2.5,0.9,3.5,3.8,3.5h0.6v0.9
				h-12.9v-0.9h0.9c2.9,0,3.8-1.1,3.8-3.4v-6.6l-8.4-13.1c-2.3-3.6-3.4-4.3-6.4-4.4v-0.9h12.5v0.9c-3.7,0-3.9,0.9-2.5,3.1l7.5,11.6
				L206.8,50.7L206.8,50.7z"/>
			<path d="M235.7,75.6h-21v-0.9h1.6c2.2,0,3-0.7,3-3.1V50.8c0-2.5-0.8-3.5-3.7-3.5h-0.6v-0.9h13.9v0.9h-1.7c-3.1,0-3.8,0.3-3.8,3.3
				v21.7c0,1.3,0.5,1.7,1.9,1.7h6.9c2.8,0,3.6-1.1,6.6-5.2h0.9L235.7,75.6L235.7,75.6z"/>
			<path d="M257.1,60.6H249l4-10.9L257.1,60.6L257.1,60.6z M257.9,62.7l3.1,8.5c0.2,0.5,0.5,1.2,0.5,1.9c0,1.3-1,1.6-3.7,1.6h-1.2
				v0.9h12.9v-0.9c-2.3,0-3.3-0.5-4.3-3l-9.8-26.1h-4.1l0.4,1l-8.6,23.3c-1.5,4.1-2,4.6-5.1,4.6v0.9h10.9v-0.9h-0.7
				c-2.6,0-3.8-0.5-3.8-1.7c0-0.6,0.6-2.1,0.9-3l2.7-7.4L257.9,62.7L257.9,62.7z"/>
			<path d="M300.2,76l-24.3-25.5v20.1c0,3.4,0.8,4.1,4.8,4.1v0.9h-10.9v-0.9h0.2c2.9,0,3.8-1,3.8-3.1V48.5c-1.1-0.8-2.3-1.1-4-1.2
				v-0.9h7.4l22.1,23.1V50.8c0-2.9-0.9-3.4-4.6-3.5v-0.9h11v0.9c-3.5,0-4.3,0.6-4.3,2.4V76H300.2L300.2,76z"/>
			<path d="M314.4,47.1c0.6-0.1,1.8-0.2,3.8-0.2c6.6,0,9.9,1.6,12.1,3.8c2.8,2.8,3.8,6.6,3.8,10.1c0,4.8-2.2,8.5-3.9,10.2
				c-2.9,2.9-5.5,3.8-11.9,3.8c-3.7,0-3.9-0.6-3.9-2.6L314.4,47.1L314.4,47.1z M310.5,71.3c0,2.7-1.2,3.4-3.7,3.4H306v0.9h15
				c11.9,0,17.4-8.5,17.4-15.6c0-7.7-5.5-14.1-17.9-14.1c-2.4,0-5.3,0.1-7.9,0.1c-2.6,0.1-4.9,0.2-6.6,0.3v0.8h0.9
				c2.8,0,3.6,0.8,3.6,3.8L310.5,71.3L310.5,71.3z"/>
			<path d="M100.8,26.8v0.4c-1.5,0-2.1,0.6-2.1,2.1v6.1c0,2.8-1.8,5.8-6.7,5.8c-4.3,0-6.5-2.5-6.5-5.7V29c0-1.4-0.4-1.7-2-1.7v-0.4
				h5.8v0.4h-0.2c-1.2,0-1.8,0.4-1.8,1.6v6.3c0,3.1,1.8,4.9,5.2,4.9c2.6,0,5.2-1.1,5.2-4.9v-5.3c0-2.2-0.4-2.6-2.2-2.6v-0.4
				L100.8,26.8L100.8,26.8z"/>
			<path d="M122.9,41.1l-11.7-12.3v9.7c0,1.6,0.4,2,2.3,2v0.4h-5.3v-0.4h0.1c1.4,0,1.8-0.5,1.8-1.5V27.8c-0.5-0.4-1.1-0.6-1.9-0.6
				v-0.4h3.6L122.5,38v-9c0-1.4-0.4-1.6-2.2-1.7v-0.4h5.3v0.4c-1.7,0-2.1,0.3-2.1,1.2v12.7L122.9,41.1L122.9,41.1z"/>
			<path d="M140.2,41h-5.5v-0.4c1.4-0.1,1.7-0.4,1.7-2v-9.7c0-1.2-0.4-1.6-1.7-1.6v-0.4h5.5v0.4c-1.4,0-1.9,0.3-1.9,1.8v9.7
				c0,1.3,0.4,1.8,1.9,1.8V41L140.2,41z"/>
			<path d="M155.5,41.3L150.5,29c-0.6-1.4-0.9-1.8-2.2-1.8v-0.4h6.3v0.4c-2.1,0.1-2.6,0.5-2.1,1.6l4.1,10.2l3.6-9.4
				c0.2-0.6,0.4-1.1,0.4-1.4c0-0.7-0.6-0.9-2.1-0.9v-0.4h5.3v0.4c-1.2,0-1.8,0.6-2.3,1.9l-4.7,12.1L155.5,41.3L155.5,41.3z"/>
			<path d="M181.4,35.9H181c-0.2-1.6-0.6-1.8-1.6-1.8h-3.8v4.9c0,1.1,0.4,1.3,1.2,1.3h3.5c1.6,0,2.1-0.6,2.6-2.6h0.4L183,41H171
				v-0.4h0.6c1.8,0,2.1-0.5,2.1-1.9v-9.6c0-1.3-0.3-1.8-1.8-1.8h-0.5v-0.4h10.9l0.2,3.1h-0.4c-0.3-1.9-0.9-2.3-1.7-2.3h-4.8v5.6h4.1
				c0.8,0,1.2-0.4,1.3-1.7h0.4L181.4,35.9L181.4,35.9z"/>
			<path d="M196.6,27.1c0.4-0.1,0.7-0.1,1.1-0.1c3.5,0,4.4,1.6,4.4,3.8c0,2.7-1.6,3.8-4.2,3.8c-0.5,0-0.9,0-1.4-0.1V27.1L196.6,27.1
				z M196.6,35c0.4,0,0.6,0.1,1.1,0.1c0.6,0,1,0,1.5-0.1c0.6,0.4,1.3,1,2.3,2l1.5,1.5c2,2,3.1,2.9,7,2.7v-0.4
				c-1.8-0.1-3.1-1-4.5-2.3l-1.8-1.8c-1.1-1.1-1.8-1.7-2.6-2.3c1.8-0.6,3-2,3-3.7c0-2.3-1.9-4-6.1-4c-1.5,0-1.9,0-2.8,0.1
				c-0.9,0.1-2.3,0.1-2.9,0.1v0.4h0.5c1.3,0,1.7,0.4,1.7,1.8v9.6c0,1.5-0.5,1.9-1.8,1.9h-0.4V41h6.4v-0.4h-0.5
				c-1.3,0-1.8-0.4-1.8-1.7L196.6,35L196.6,35z"/>
			<path d="M216.3,37.5c0.5,2,2.1,3.2,3.8,3.2c1.5,0,3.1-0.9,3.1-2.7c0-3.3-7.2-4.3-7.2-8.2c0-1.9,1.7-3.3,4-3.3
				c1.9,0,2.3,0.6,3.1,0.6c0.2,0,0.3-0.1,0.4-0.2h0.4l0.4,2.9h-0.4c-0.6-1.6-2.1-2.7-3.6-2.7c-1.5,0-2.5,0.9-2.5,2.1
				c0,3.2,7.2,4.1,7.2,8.2c0,2.2-2,3.9-4.6,3.9c-1.2,0-2.8-0.6-3.1-0.6c-0.2,0-0.4,0.1-0.4,0.3h-0.4l-0.5-3.5L216.3,37.5L216.3,37.5
				z"/>
			<path d="M240.8,41h-5.5v-0.4c1.4-0.1,1.7-0.4,1.7-2v-9.7c0-1.2-0.4-1.6-1.7-1.6v-0.4h5.5v0.4c-1.4,0-1.9,0.3-1.9,1.8v9.7
				c0,1.3,0.4,1.8,1.9,1.8V41L240.8,41z"/>
			<path d="M257,38.9c0,1.2,0.4,1.7,1.8,1.7h0.9V41h-7.2v-0.4h0.9c1.4,0,1.8-0.4,1.8-1.7V27.6h-4c-0.9,0-1.3,0.5-1.6,2.5h-0.4
				l0.4-3.7h0.4c0,0.1,0.1,0.2,0.3,0.3c0.1,0.1,0.3,0.1,0.4,0.1h10.9c0.3,0,0.6-0.1,0.7-0.3h0.4l0.4,3.7h-0.4
				c-0.4-2-0.8-2.5-1.6-2.5h-4L257,38.9L257,38.9z"/>
			<path d="M281.8,28.9c0.7-1.3,0.3-1.6-1.2-1.6v-0.4h5.1v0.4c-1.6,0.1-2.2,0.7-2.8,1.8l-3.8,6.4v3.4c0,1.2,0.4,1.7,1.8,1.7h0.3v0.4
				H275v-0.4h0.4c1.4,0,1.8-0.5,1.8-1.6v-3.2l-4-6.3c-1.1-1.8-1.6-2.1-3.1-2.1v-0.4h6v0.4c-1.8,0-1.8,0.4-1.2,1.5l3.6,5.6
				L281.8,28.9L281.8,28.9z"/>
			<path d="M317.4,34.3c0,3.2-1.8,6.5-5.5,6.5c-3.7,0-6.5-3-6.5-7.2c0-2.7,1.6-6.5,5.6-6.5C314.7,27,317.4,30,317.4,34.3L317.4,34.3
				z M319.5,33.5c0-4.1-3.7-7-8-7c-4.8,0-8.3,3.2-8.3,7.7c0,4.3,3.8,7.1,8.2,7.1C315.8,41.3,319.5,38.1,319.5,33.5L319.5,33.5z"/>
			<path d="M334.8,35.5h-0.4c-0.1-1.3-0.5-1.7-1.6-1.7h-4.2v5c0,1.3,0.3,1.8,2,1.8V41h-5.5v-0.4c1.4-0.1,1.6-0.4,1.6-2.2v-8.9
				c0-1.5-0.1-2.1-1.7-2.1v-0.4h10.2v2.7h-0.4c0-1.3-0.5-1.9-1.9-1.9h-4.3V33h4.5c0.9,0,1.3-0.5,1.3-1.5h0.4V35.5L334.8,35.5z"/>
			<polygon points="306.1,47.2 306.1,46.4 305.5,46.4 305.5,47.2 			"/>
		</g>
	</g>
	<g>
		<path class="st1" d="M394.8,50.9c0,17.3-7.6,24.7-19.3,24.7h-11.1V26.4h11.3C387.7,26.4,394.8,33.6,394.8,50.9z M385.6,51.1
			c0-9.1-1.9-16.1-9.9-16.1h-2.4v32.1h2.4C383.7,67.1,385.6,60.2,385.6,51.1z"/>
		<path class="st1" d="M428.8,75.6h-9.7l-7.8-18.7h-2.9v18.7h-8.9V26.4h13.3c9.7,0,15.9,5.1,15.9,15.3c0,6.9-3.6,11.2-8.4,13.4
			L428.8,75.6z M419.7,41.9c0-4.4-2.1-6.9-7.4-6.9h-3.9v13.7h4.4C417.3,48.7,419.7,46.4,419.7,41.9z"/>
		<path class="st1" d="M463.6,55.9c0,12.8-3.9,20.5-14.9,20.5c-10.6,0-14.9-8.1-14.9-20.3V26.4h8.9v29.7c0,8.5,1.9,11.6,6,11.6
			c4.1,0,5.9-3.1,5.9-11.6V26.4h8.9V55.9z"/>
		<path class="st1" d="M506.3,75.6h-8.1V59.7c0-5.8,0.1-11.3,0.1-14.9c-1,3.5-2.6,9-4.5,14.6L488,76.9l-5.8-17.5
			c-1.9-5.6-3.5-11.1-4.5-14.6c0.1,3.7,0.1,9.1,0.1,14.9v15.9h-8V26.4h9l5.9,18.2c1.5,4.6,2.9,8.8,3.4,11.1
			c0.5-2.5,1.9-6.8,3.4-11.1l5.9-18.2h8.9V75.6z"/>
	</g>
	<g>
		<path class="st1" d="M89.3,108.1c0,5.6-2,8.1-5.4,8.1H81v-16h3.2C87.6,100.2,89.3,102.9,89.3,108.1z M87.7,108.2
			c0-4.4-1.2-6.5-3.6-6.5h-1.5v13h1.4C86.3,114.7,87.7,112.9,87.7,108.2z"/>
		<path class="st1" d="M92.9,116.2h-1.6v-16h1.6V116.2z"/>
		<path class="st1" d="M104.1,110.7c0,3.4-1.4,5.8-4.3,5.8c-3,0-4.5-3.1-4.5-8.3c0-5.1,1.5-8.3,4.5-8.3c2.1,0,3.2,1.4,3.9,3.4
			l-1.5,0.6c-0.7-2-1.3-2.6-2.4-2.6c-1.8,0-2.9,2.4-2.9,6.8c0,4.5,1.1,6.8,2.9,6.8c1.7,0,2.6-1.4,2.6-4.2v-1.2h-2.2v-1.5h3.8V110.7z
			"/>
		<path class="st1" d="M108.1,116.2h-1.6v-16h1.6V116.2z"/>
		<path class="st1" d="M118.3,101.7H115v14.5h-1.6v-14.5h-3.3v-1.5h8.2V101.7z"/>
		<path class="st1" d="M127.3,116.2h-1.6l-1-4.2h-4.2l-1,4.2h-1.6l3.9-16h1.7L127.3,116.2z M124.3,110.6l-0.9-4
			c-0.3-1.5-0.7-3.2-0.9-4.4c-0.2,1.2-0.5,2.9-0.9,4.4l-0.9,4H124.3z"/>
		<path class="st1" d="M136.1,116.2h-6.8v-16h1.6v14.5h5.2V116.2z"/>
		<path class="st1" d="M151.6,116.2h-1.8l-2.4-7.3c-0.2,0-1.9,0-2.3,0v7.2h-1.6v-16h3.9c2.3,0,4.2,1.4,4.2,4.3c0,2.1-1,3.5-2.5,4.1
			L151.6,116.2z M149.9,104.6c0-1.9-1-2.9-2.6-2.9h-2.2v5.8h2.1C149,107.5,149.9,106.5,149.9,104.6z"/>
		<path class="st1" d="M161,116.2h-7.2v-16h6.9v1.5h-5.3v5.2h3.3v1.5h-3.3v6.3h5.6V116.2z"/>
		<path class="st1" d="M171.1,104.7c0,3.2-2,4.7-4.4,4.7h-1.9v6.9h-1.6v-16h3.8C169.2,100.2,171.1,101.6,171.1,104.7z M169.4,104.8
			c0-2-1-3-2.6-3h-2.1v6.1h2C168.5,107.8,169.4,106.8,169.4,104.8z"/>
		<path class="st1" d="M181.8,108.2c0,5.2-1.6,8.3-4.7,8.3c-3.1,0-4.6-3.1-4.6-8.3c0-5.2,1.6-8.3,4.6-8.3
			C180.2,100,181.8,103,181.8,108.2z M180.2,108.2c0-4.5-1.2-6.8-3.1-6.8c-1.8,0-3,2.3-3,6.8c0,4.5,1.2,6.8,3,6.8
			C179,115,180.2,112.7,180.2,108.2z"/>
		<path class="st1" d="M191.2,112.6c0,2.3-1.5,3.9-3.9,3.9c-2,0-3.3-1.2-4-3.2l1.5-0.7c0.6,1.6,1.4,2.4,2.6,2.4
			c1.4,0,2.3-0.9,2.3-2.2c0-1.6-0.7-2.8-2.8-4.3c-2.3-1.6-3.1-2.8-3.1-4.9c0-2.1,1.4-3.6,3.6-3.6c2,0,3,1,3.8,2.7l-1.4,0.8
			c-0.6-1.3-1.3-2-2.5-2c-1.3,0-1.9,1-1.9,2c0,1.3,0.4,2.2,2.5,3.7C190.2,108.8,191.2,110.4,191.2,112.6z"/>
		<path class="st1" d="M195.3,116.2h-1.6v-16h1.6V116.2z"/>
		<path class="st1" d="M205.4,101.7h-3.3v14.5h-1.6v-14.5h-3.3v-1.5h8.2V101.7z"/>
		<path class="st1" d="M215.6,108.2c0,5.2-1.6,8.3-4.7,8.3c-3.1,0-4.6-3.1-4.6-8.3c0-5.2,1.6-8.3,4.6-8.3
			C214,100,215.6,103,215.6,108.2z M214,108.2c0-4.5-1.2-6.8-3.1-6.8c-1.8,0-3,2.3-3,6.8c0,4.5,1.2,6.8,3,6.8
			C212.8,115,214,112.7,214,108.2z"/>
		<path class="st1" d="M226,116.2h-1.8l-2.4-7.3c-0.2,0-1.9,0-2.3,0v7.2h-1.6v-16h3.9c2.3,0,4.2,1.4,4.2,4.3c0,2.1-1,3.5-2.5,4.1
			L226,116.2z M224.3,104.6c0-1.9-1-2.9-2.6-2.9h-2.2v5.8h2.1C223.4,107.5,224.3,106.5,224.3,104.6z"/>
		<path class="st1" d="M235.8,100.2l-3.8,9.3v6.7h-1.6v-6.7l-3.8-9.3h1.8l1.6,4.2c0.5,1.3,1,2.7,1.3,3.6c0.3-0.9,0.8-2.4,1.3-3.6
			l1.6-4.2H235.8z"/>
		<path class="st1" d="M251.7,116.2h-1.6l-1-4.2h-4.2l-1,4.2h-1.6l3.9-16h1.7L251.7,116.2z M248.8,110.6l-0.9-4
			c-0.3-1.5-0.7-3.2-0.9-4.4c-0.2,1.2-0.5,2.9-0.9,4.4l-0.9,4H248.8z"/>
		<path class="st1" d="M259.8,101.7h-3.3v14.5h-1.6v-14.5h-3.3v-1.5h8.2V101.7z"/>
		<path class="st1" d="M274.4,101.7h-3.3v14.5h-1.6v-14.5h-3.3v-1.5h8.2V101.7z"/>
		<path class="st1" d="M284.7,116.2h-1.6v-7.7h-5.2v7.7h-1.6v-16h1.6v6.8h5.2v-6.8h1.6V116.2z"/>
		<path class="st1" d="M294.3,116.2H287v-16h6.9v1.5h-5.3v5.2h3.3v1.5h-3.3v6.3h5.6V116.2z"/>
		<path class="st1" d="M310.1,111.4c0,3.2-1.6,5.1-4.2,5.1c-2.7,0-4.2-1.8-4.2-5v-11.2h1.6v11.2c0,2.3,0.9,3.6,2.7,3.6
			c1.7,0,2.6-1.3,2.6-3.6v-11.2h1.6V111.4z"/>
		<path class="st1" d="M320.8,116.2h-1.4l-3.9-8.8c-0.6-1.3-1.3-2.9-1.7-3.9c0,0.6,0,2.1,0,3.1v9.6h-1.5v-16h1.6l3.7,8.4
			c0.6,1.4,1.3,3,1.7,3.9c0-0.6,0-2.1,0-3.1v-9.2h1.5V116.2z"/>
		<path class="st1" d="M325.3,116.2h-1.6v-16h1.6V116.2z"/>
		<path class="st1" d="M336.7,100.2l-3.8,16h-1.6l-3.8-16h1.6l2.2,9.7c0.3,1.5,0.6,3,0.8,4.2c0.2-1.2,0.5-2.7,0.8-4.2l2.2-9.7H336.7
			z"/>
		<path class="st1" d="M345.9,116.2h-7.2v-16h6.9v1.5h-5.3v5.2h3.3v1.5h-3.3v6.3h5.6V116.2z"/>
		<path class="st1" d="M356.1,116.2h-1.8l-2.4-7.3c-0.2,0-1.9,0-2.3,0v7.2H348v-16h3.9c2.3,0,4.2,1.4,4.2,4.3c0,2.1-1,3.5-2.5,4.1
			L356.1,116.2z M354.4,104.6c0-1.9-1-2.9-2.6-2.9h-2.2v5.8h2.1C353.5,107.5,354.4,106.5,354.4,104.6z"/>
		<path class="st1" d="M366,112.6c0,2.3-1.5,3.9-3.9,3.9c-2,0-3.3-1.2-4-3.2l1.5-0.7c0.6,1.6,1.4,2.4,2.6,2.4c1.4,0,2.3-0.9,2.3-2.2
			c0-1.6-0.7-2.8-2.8-4.3c-2.3-1.6-3.1-2.8-3.1-4.9c0-2.1,1.4-3.6,3.6-3.6c2,0,3,1,3.8,2.7l-1.4,0.8c-0.6-1.3-1.3-2-2.5-2
			c-1.3,0-1.9,1-1.9,2c0,1.3,0.4,2.2,2.5,3.7C365.1,108.8,366,110.4,366,112.6z"/>
		<path class="st1" d="M370.1,116.2h-1.6v-16h1.6V116.2z"/>
		<path class="st1" d="M380.3,101.7H377v14.5h-1.6v-14.5h-3.3v-1.5h8.2V101.7z"/>
		<path class="st1" d="M390.9,100.2l-3.8,9.3v6.7h-1.6v-6.7l-3.8-9.3h1.8l1.6,4.2c0.5,1.3,1,2.7,1.3,3.6c0.3-0.9,0.8-2.4,1.3-3.6
			l1.6-4.2H390.9z"/>
		<path class="st1" d="M406.9,108.2c0,5.2-1.6,8.3-4.7,8.3c-3.1,0-4.6-3.1-4.6-8.3c0-5.2,1.6-8.3,4.6-8.3S406.9,103,406.9,108.2z
			 M405.3,108.2c0-4.5-1.2-6.8-3.1-6.8c-1.8,0-3,2.3-3,6.8c0,4.5,1.2,6.8,3,6.8C404.1,115,405.3,112.7,405.3,108.2z"/>
		<path class="st1" d="M415.7,101.7h-5.3v5.4h3.4v1.5h-3.4v7.6h-1.6v-16h6.9V101.7z"/>
		<path class="st1" d="M433.2,116.2h-1.5v-9.6c0-0.8,0-2.1,0-2.8c-0.2,1-0.5,2-0.8,3.2l-2.8,9.7l-2.8-9.7c-0.3-1.2-0.6-2.2-0.8-3.2
			c0,0.7,0,1.9,0,2.8v9.6H423v-16h1.8l2.5,8.4c0.4,1.4,0.7,2.7,0.9,3.8c0.1-1.1,0.5-2.4,0.9-3.8l2.5-8.4h1.8V116.2z"/>
		<path class="st1" d="M444.7,116.2H443l-1-4.2h-4.2l-1,4.2h-1.6l3.9-16h1.7L444.7,116.2z M441.7,110.6l-0.9-4
			c-0.3-1.5-0.7-3.2-0.9-4.4c-0.2,1.2-0.5,2.9-0.9,4.4l-0.9,4H441.7z"/>
		<path class="st1" d="M454.8,116.2h-1.8l-2.4-7.3c-0.2,0-1.9,0-2.3,0v7.2h-1.6v-16h3.9c2.3,0,4.2,1.4,4.2,4.3c0,2.1-1,3.5-2.5,4.1
			L454.8,116.2z M453.2,104.6c0-1.9-1-2.9-2.6-2.9h-2.2v5.8h2.1C452.2,107.5,453.2,106.5,453.2,104.6z"/>
		<path class="st1" d="M465.1,100.2l-3.8,9.3v6.7h-1.6v-6.7l-3.8-9.3h1.8l1.6,4.2c0.5,1.3,1,2.7,1.3,3.6c0.3-0.9,0.8-2.4,1.3-3.6
			l1.6-4.2H465.1z"/>
		<path class="st1" d="M474.2,116.2h-6.8v-16h1.6v14.5h5.2V116.2z"/>
		<path class="st1" d="M485.4,116.2h-1.6l-1-4.2h-4.2l-1,4.2H476l3.9-16h1.7L485.4,116.2z M482.5,110.6l-0.9-4
			c-0.3-1.5-0.7-3.2-0.9-4.4c-0.2,1.2-0.5,2.9-0.9,4.4l-0.9,4H482.5z"/>
		<path class="st1" d="M495.9,116.2h-1.4l-3.9-8.8c-0.6-1.3-1.3-2.9-1.7-3.9c0,0.6,0,2.1,0,3.1v9.6h-1.5v-16h1.6l3.7,8.4
			c0.6,1.4,1.3,3,1.7,3.9c0-0.6,0-2.1,0-3.1v-9.2h1.5V116.2z"/>
		<path class="st1" d="M506.5,108.1c0,5.6-2,8.1-5.4,8.1h-2.9v-16h3.2C504.8,100.2,506.5,102.9,506.5,108.1z M504.9,108.2
			c0-4.4-1.2-6.5-3.6-6.5h-1.5v13h1.4C503.5,114.7,504.9,112.9,504.9,108.2z"/>
	</g>
</g>
</svg>
